<svg width="506" height="454" viewBox="0 0 506 454" fill="none" xmlns="http://www.w3.org/2000/svg">
<path d="M144.663 56.0018C186.227 23.7992 239.399 6.20013 295.94 10.6935C415.39 20.4292 504.508 125.275 494.773 244.724C485.037 364.173 380.191 453.292 260.742 443.556C177.24 436.816 108.342 383.644 78.0112 311.376" stroke="#FE6831" stroke-width="19.3877" stroke-miterlimit="10" stroke-linecap="round" stroke-linejoin="round"/>
<path d="M312.041 216.224H321.735V206.53V103.557C321.735 100.673 324.135 98.2729 327.019 98.2729C329.995 98.2729 332.051 100.66 331.939 103.117L331.929 103.337V103.557V339.46C331.929 342.344 329.529 344.744 326.645 344.744C323.761 344.744 321.361 342.344 321.361 339.46V236.486V226.793H311.667H264.861C264.021 226.793 262.879 226.53 261.707 225.944L261.51 225.845L261.309 225.756C259.402 224.908 258.542 223.883 258.244 223.063L258.202 222.948L258.158 222.834L242.431 182.768L232.103 156.456L224.109 183.569L187.787 306.763L187.786 306.769C187.053 309.26 185.04 310.669 182.857 310.669H182.854H182.852H182.85H182.848H182.846H182.844H182.841H182.839H182.837H182.835H182.833H182.831H182.829H182.827H182.825H182.823H182.82H182.818H182.816H182.814H182.812H182.81H182.808H182.806H182.804H182.802H182.8H182.798H182.796H182.794H182.793H182.791H182.789H182.787H182.785H182.783H182.781H182.779H182.777H182.775H182.774H182.772H182.77H182.768H182.766H182.764H182.763H182.761H182.759H182.757H182.755H182.754H182.752H182.75H182.748H182.747H182.745H182.743H182.741H182.74H182.738H182.736H182.735H182.733H182.731H182.73H182.728H182.726H182.725H182.723H182.721H182.72H182.718H182.716H182.715H182.713H182.712H182.71H182.709H182.707H182.705H182.704H182.702H182.701H182.699H182.698H182.696H182.695H182.693H182.692H182.69H182.689H182.687H182.686H182.684H182.683H182.681H182.68H182.679H182.677H182.676H182.674H182.673H182.672H182.67H182.669H182.667H182.666H182.665H182.663H182.662H182.661H182.659H182.658H182.657H182.655H182.654H182.653H182.651H182.65H182.649H182.648H182.646H182.645H182.644H182.643H182.641H182.64H182.639H182.638H182.636H182.635H182.634H182.633H182.632H182.63H182.629H182.628H182.627H182.626H182.625H182.623H182.622H182.621H182.62H182.619H182.618H182.617H182.616H182.614H182.613H182.612H182.611H182.61H182.609H182.608H182.607H182.606H182.605H182.604H182.603H182.602H182.601H182.6H182.599H182.598H182.597H182.596H182.595H182.594H182.593H182.592H182.591H182.59H182.589H182.588H182.587H182.586H182.585H182.584H182.583H182.582H182.581H182.581H182.58H182.579H182.578H182.577H182.576H182.575H182.574H182.573H182.573H182.572H182.571H182.57H182.569H182.568H182.568H182.567H182.566H182.565H182.564H182.564H182.563H182.562H182.561H182.56H182.56H182.559H182.558H182.557H182.557H182.556H182.555H182.554H182.554H182.553H182.552H182.552H182.551H182.55H182.549H182.549H182.548H182.547H182.547H182.546H182.545H182.545H182.544H182.543H182.543H182.542H182.541H182.541H182.54H182.539H182.539H182.538H182.538H182.537H182.536H182.536H182.535H182.535H182.534H182.533H182.533H182.532H182.532H182.531H182.531H182.53H182.529H182.529H182.528H182.528H182.527H182.527H182.526H182.526H182.525H182.525H182.524H182.524H182.523H182.523H182.522H182.522H182.521H182.521H182.52H182.52H182.519H182.519H182.518H182.518H182.517H182.517H182.516H182.516H182.516H182.515H182.515H182.514H182.514H182.513H182.513H182.513H182.512H182.512H182.511H182.511H182.511H182.51H182.51H182.509H182.509H182.509H182.508H182.508H182.508H182.507H182.507H182.506H182.506H182.506H182.505H182.505H182.505H182.504H182.504H182.504H182.503H182.503H182.503H182.502H182.502H182.502H182.501H182.501H182.501H182.501H182.5H182.5H182.5H182.499H182.499H182.499H182.499H182.498H182.498H182.498H182.498H182.497H182.497H182.497H182.496H182.496H182.496H182.496H182.496H182.495H182.495H182.495H182.495H182.494H182.494H182.494H182.494H182.493H182.493H182.493H182.493H182.493H182.492H182.492H182.492H182.492H182.492H182.491H182.491H182.491H182.491H182.491H182.491H182.49H182.49H182.49H182.49H182.49H182.49H182.489H182.489H182.489H182.489H182.489H182.489H182.488H182.488H182.488H182.488H182.488H182.488H182.488H182.487H182.487H182.487H182.487H182.487H182.487H182.487H182.487H182.486H182.486H182.486H182.486H182.485H182.485H182.485H182.485H182.485H182.485H182.484H182.484H182.484H182.484H182.484H182.484H182.484H182.483H182.483H182.483H182.483H182.483H182.483H182.483H182.482H182.482H182.482H182.482C180.414 310.669 178.13 308.986 177.506 306.987L177.483 306.914L177.459 306.841L153.12 233.075L150.923 226.418H143.914H75.7642H68.8724L66.6084 232.927L48.6349 284.601L48.6142 284.661L48.5943 284.72C47.7286 287.317 44.7331 288.942 41.7592 287.951C39.1759 287.09 37.5546 284.121 38.5136 281.162L53.0907 239.3L57.5763 226.418H43.936H15.4779C12.5938 226.418 10.1938 224.018 10.1938 221.134C10.1938 218.25 12.5938 215.85 15.4779 215.85H54.4206H61.314L63.5771 209.338L106.217 86.6549C107.112 84.3657 109.103 83.0385 111.071 82.928C113.862 83.2107 115.833 85.0656 116.313 86.6027L116.333 86.6662L116.354 86.7295L159.415 218.161L159.638 218.839L159.929 219.422C159.932 219.429 159.936 219.438 159.94 219.448C159.97 219.521 160.015 219.638 160.079 219.813C160.211 220.176 160.353 220.601 160.545 221.176C160.548 221.185 160.551 221.195 160.554 221.204L172.518 257.843L182.179 287.429L191.027 257.59L226.225 138.89L226.228 138.88L226.231 138.869C226.879 136.669 228.817 135.102 231.355 134.952C233.638 134.818 235.614 136.176 236.313 138.04L236.344 138.122L236.376 138.204L264.834 210.098L267.259 216.224H273.848H312.041ZM77.4661 202.226L72.9939 215.101H86.6232H134.553H147.913L143.768 202.4L120.552 131.255L111.624 103.893L102.18 131.081L77.4661 202.226Z" fill="black" stroke="#FE6831" stroke-width="19.3877"/>
<path d="M364.464 328.642C361.58 328.642 359.18 326.242 359.18 323.358V124.9C359.18 122.016 361.58 119.616 364.464 119.616C367.348 119.616 369.748 122.016 369.748 124.9V323.358C369.748 326.242 367.348 328.642 364.464 328.642Z" fill="black" stroke="#FE6831" stroke-width="19.3877"/>
<path d="M407.193 207.279V216.973H416.887H422.504C425.388 216.973 427.788 219.373 427.788 222.257C427.788 225.141 425.388 227.541 422.504 227.541H416.887H407.193V237.235V295.275C407.193 298.159 404.793 300.559 401.909 300.559C399.025 300.559 396.625 298.159 396.625 295.275V149.24C396.625 146.356 399.025 143.956 401.909 143.956C404.793 143.956 407.193 146.356 407.193 149.24V207.279Z" fill="black" stroke="#FE6831" stroke-width="19.3877"/>
</svg>
